<svg viewBox="0 0 512 512" xmlns="http://www.w3.org/2000/svg" data-name="Layer 1" id="Layer_1">
  <defs>
    <style>
      .cls-1 {
        fill: #fff;
      }

      .cls-1, .cls-2 {
        stroke-width: 0px;
      }

      .cls-2 {
        fill: #f6821f;
      }
    </style>
  </defs>
  <path d="m0,0h512v512H0V0Zm44.17,418.47c.64,6.03,6.78,10.24,12.2,7.9,5.16-2.21,10.42-4.69,14.81-8.11,14.03-10.92,27.92-22.06,41.41-33.63,12.61-10.82,24.92-22.02,36.86-33.57,11.29-10.93,21.77-22.69,32.91-33.78,7.86-7.83,16.08-15.08,22.68-24.32,9.34-13.07,20.49-24.84,30.85-37.19,6.75-8.05,14.82-15.37,19.89-24.37,7.5-13.3,17.15-24.77,26.88-36.17,14.9-17.46,29.47-35.04,40.22-55.49,5-9.5,11.11-17.85,22-21.98,6.3-2.39,10.79-7.49,12.03-14.87.93-5.53,2.79-10.89,3.94-16.39.68-3.22-.66-5.33-4.22-6.07-10.03-2.09-17.04,1.01-23.85,11-5.73,8.41-12.9,15.39-20.45,22.18-7.72,6.94-15.32,14.26-17.44,25.29-.87,4.53-1.44,9.52-3.78,13.27-5.15,8.24-11.24,15.92-17.17,23.65-3.39,4.41-6.75,9.05-10.97,12.58-10.75,9.01-20.96,18.22-27.56,31.02-3.03,5.89-6.46,11.76-13.13,15.16-2.99,1.53-4.67,5.78-6.74,8.93-2.36,3.6-4.27,7.5-6.74,11-6.87,9.75-13.36,19.86-21.09,28.9-7.59,8.88-16.49,16.64-24.84,24.87-6.35,6.25-12.71,12.48-19.1,18.7-3.45,3.35-6.52,7.33-10.51,9.84-8.21,5.15-15.78,10.73-22.08,18.27-4.29,5.13-9.76,9.32-14.9,13.69-7.16,6.09-14.8,11.64-21.71,18-8.65,7.96-16.83,16.44-25.09,24.81-2.02,2.05-3.56,4.56-5.33,6.85l.02.03Zm205.87-67.37c-2.63,18.11,5.86,29.58,20.65,36.66,11.32,5.41,24.05,4.16,36.22,5.27,3.75.34,4.81-2.84,3.73-5.94-.66-1.9-2.36-3.53-3.84-5.03-7.53-7.65-15.36-15.01-22.58-22.94-1.91-2.1-2.36-5.77-2.93-8.83-1.59-8.47,3.2-14.81,8.08-20.66,8.34-10.02,13.75-21.49,18.54-33.42,3.69-9.19,7.7-18.26,11.73-27.31.45-1,1.95-2.14,2.99-2.16,2.95-.06,5.98.14,8.87.74,11.46,2.41,22.5,1.47,32.98-3.89,15.78-8.07,31.22-16.88,47.34-24.19,14.11-6.4,23.63-16.95,30.94-29.84,5.13-9.05,9.28-18.66,13.72-28.08,1.48-3.13,2.84-6.4,3.68-9.74,2.96-11.69-4.53-17.6-15.62-21.59-9.88-3.55-19.26,1.64-28.81,3.06-2.9.43-3.76,3.67-1.07,6.24,3.96,3.8,7.97,7.55,12.03,11.25,2.5,2.28,2.63,4.82.26,6.91-7.21,6.35-10.31,14.84-13.28,23.57-2.52,7.4-5.71,14.43-13.19,18.6-2.22,1.24-3.45,4.19-5.25,6.26-2.89,3.34-5.39,7.34-8.94,9.73-5.61,3.77-12.18,6.08-17.93,9.66-9.58,5.96-19.09,2.08-28.3-.2-3.25-.81-5.67-5.53-8.17-8.7-3.15-4-7.01-6.49-12.06-5.09-4.85,1.34-9.47,3.5-14.17,5.37-10.46,4.16-12.11,13.35-12.32,22.84-.12,5.18-1.44,9.37-4.98,13.03-2.75,2.84-6.17,5.4-7.9,8.79-3.44,6.74-5.76,14.05-8.85,20.98-2.75,6.16-4.7,13.31-9.15,17.95-8.68,9.06-14.99,18.28-12.41,30.72v-.02Z" class="cls-2"></path>
  <path d="m44.17,418.47c1.76-2.3,3.31-4.81,5.33-6.85,8.26-8.37,16.43-16.85,25.09-24.81,6.91-6.35,14.55-11.91,21.71-18,5.14-4.37,10.61-8.56,14.9-13.69,6.3-7.54,13.87-13.12,22.08-18.27,3.99-2.5,7.06-6.48,10.51-9.84,6.38-6.22,12.75-12.45,19.1-18.7,8.35-8.23,17.25-15.99,24.84-24.87,7.72-9.04,14.21-19.15,21.09-28.9,2.47-3.51,4.39-7.41,6.74-11,2.07-3.15,3.74-7.41,6.74-8.93,6.66-3.4,10.09-9.28,13.13-15.16,6.6-12.8,16.8-22.01,27.56-31.02,4.22-3.53,7.58-8.17,10.97-12.58,5.94-7.73,12.02-15.41,17.17-23.65,2.35-3.75,2.91-8.75,3.78-13.27,2.12-11.03,9.72-18.36,17.44-25.29,7.55-6.79,14.72-13.77,20.45-22.18,6.81-10,13.82-13.09,23.85-11,3.56.74,4.9,2.85,4.22,6.07-1.16,5.5-3.01,10.86-3.94,16.39-1.24,7.38-5.73,12.48-12.03,14.87-10.89,4.13-17,12.47-22,21.98-10.75,20.46-25.32,38.03-40.22,55.49-9.73,11.4-19.38,22.87-26.88,36.17-5.08,9-13.14,16.32-19.89,24.37-10.36,12.34-21.51,24.12-30.85,37.19-6.6,9.24-14.82,16.49-22.68,24.32-11.14,11.1-21.62,22.86-32.91,33.78-11.94,11.55-24.25,22.75-36.86,33.57-13.49,11.58-27.38,22.71-41.41,33.63-4.39,3.42-9.65,5.9-14.81,8.11-5.43,2.33-11.56-1.88-12.2-7.9l-.02-.03Z" class="cls-1"></path>
  <path d="m250.04,351.1c-2.58-12.43,3.73-21.66,12.41-30.72,4.45-4.65,6.4-11.79,9.15-17.95,3.09-6.94,5.41-14.24,8.85-20.98,1.73-3.39,5.15-5.95,7.9-8.79,3.54-3.66,4.87-7.84,4.98-13.03.21-9.5,1.86-18.69,12.32-22.84,4.7-1.87,9.32-4.02,14.17-5.37,5.05-1.4,8.91,1.08,12.06,5.09,2.5,3.17,4.92,7.89,8.17,8.7,9.21,2.28,18.72,6.16,28.3.2,5.75-3.58,12.33-5.89,17.93-9.66,3.56-2.39,6.05-6.39,8.94-9.73,1.8-2.07,3.03-5.03,5.25-6.26,7.48-4.17,10.67-11.2,13.19-18.6,2.98-8.73,6.07-17.22,13.28-23.57,2.37-2.09,2.23-4.63-.26-6.91-4.06-3.7-8.07-7.45-12.03-11.25-2.69-2.57-1.83-5.81,1.07-6.24,9.56-1.42,18.93-6.61,28.81-3.06,11.09,3.98,18.58,9.89,15.62,21.59-.85,3.35-2.21,6.61-3.68,9.74-4.44,9.43-8.59,19.04-13.72,28.08-7.31,12.88-16.83,23.43-30.94,29.84-16.12,7.31-31.56,16.12-47.34,24.19-10.49,5.36-21.52,6.3-32.98,3.89-2.89-.61-5.92-.8-8.87-.74-1.04.02-2.54,1.16-2.99,2.16-4.03,9.05-8.04,18.12-11.73,27.31-4.79,11.93-10.2,23.41-18.54,33.42-4.87,5.86-9.67,12.19-8.08,20.66.57,3.05,1.01,6.72,2.93,8.83,7.22,7.92,15.05,15.29,22.58,22.94,1.48,1.5,3.18,3.14,3.84,5.03,1.08,3.09.02,6.28-3.73,5.94-12.17-1.11-24.9.15-36.22-5.27-14.79-7.07-23.28-18.55-20.65-36.66v.02Z" class="cls-1"></path>
</svg>